<svg width="232" height="300" viewBox="0 0 232 300" fill="none" xmlns="http://www.w3.org/2000/svg">
<g opacity="0.1">
<path d="M216.201 33.3563C215.892 35.1461 215.897 36.7381 216.033 38.0652C216.306 40.7586 217.144 42.374 217.144 42.374L220.331 41.6301L224.895 40.563L298.361 23.3552L306.24 21.5145C306.24 21.5145 297.747 19.3673 286.184 17.2255C265.705 13.4312 235.592 9.651 226.044 17.8815C219.427 23.583 216.926 29.0463 216.201 33.3563Z" fill="#687A1B"/>
<path d="M87.537 243.014C87.537 243.014 116.653 220.876 134.223 235.856C151.792 250.836 155.256 306.161 155.256 306.161L87.537 243.014Z" fill="#9E9E2B"/>
<path d="M226.219 -128.349C216.766 -121.408 212.311 -107.227 210.209 -96.2494C209.182 -90.8858 208.585 -85.2189 209.651 -79.8113C211.343 -71.2299 215.116 -63.0309 218.285 -54.9277C224.523 -38.9758 227.527 -23.155 225.654 -6.00811C223.683 12.0453 217.142 29.2717 209.041 45.406C200.896 61.6298 191.685 77.702 181.678 92.8532C176.939 100.028 171.753 106.966 165.562 112.964C159.713 118.633 153.062 123.342 146.262 127.791C132.191 136.999 116.714 145.844 108.727 161.353C104.768 169.041 104.093 176.63 105.592 185.05C106.941 192.624 106.547 199.586 101.715 205.896C96.4 212.836 88.8148 214.312 80.5968 215.19C72.9044 216.012 65.9466 218.728 60.068 223.846C49.1552 233.348 43.3346 248.881 47.3598 263.032C48.3322 266.451 43.0904 268.21 42.1158 264.783C38.5553 252.266 41.4163 238.938 48.7635 228.328C56.3822 217.326 67.627 210.963 80.8445 209.613C89.2829 208.751 97.164 206.283 100.123 197.397C101.451 193.408 100.787 189.429 100.074 185.395C99.3177 181.118 98.8836 177.016 99.3881 172.679C101.293 156.308 113.866 143.324 126.641 134.157C140.962 123.881 156.504 115.919 168.004 102.181C179.814 88.071 188.725 71.172 197.62 55.1401C206.923 38.3741 215.244 20.8086 218.883 1.85799C220.589 -7.02763 221.248 -16.0964 220.449 -25.1211C219.658 -34.0511 217.137 -42.4916 213.95 -50.8308C210.485 -59.8937 206.369 -68.8556 204.337 -78.3891C203.008 -84.6206 203.61 -91.1752 204.799 -97.3829C207.204 -109.938 212.468 -125.1 223.196 -132.976C226.07 -135.087 229.081 -130.45 226.219 -128.349Z" fill="#ACB23D"/>
<path d="M178.312 164.725C171.995 163.796 164.491 167.039 158.375 168.464C152.494 169.835 146.572 171.074 140.597 171.969C128.178 173.83 115.506 174.01 103.287 170.814C99.8572 169.917 100.971 164.501 104.422 165.403C117.08 168.714 130.079 168.17 142.889 166.031C149.261 164.967 155.559 163.509 161.831 161.969C167.591 160.555 173.452 158.432 179.446 159.314C182.968 159.833 181.821 165.241 178.312 164.725Z" fill="#ACB23D"/>
<path d="M129.743 208.872C124.143 211.058 118.267 212.448 112.262 212.874C106.767 213.263 100.073 213.413 95.1493 210.615C92.0682 208.864 94.5758 203.934 97.6815 205.699C102.055 208.185 108.324 207.708 113.194 207.251C118.303 206.77 123.219 205.491 127.993 203.628C131.316 202.33 133.048 207.582 129.743 208.872Z" fill="#ACB23D"/>
<path d="M70.2883 182.407C75.5965 181.059 81.0495 182.908 86.1831 184.293C92.3595 185.959 98.4228 187.993 104.394 190.284C107.706 191.556 105.158 196.465 101.861 195.2C96.792 193.255 91.6474 191.537 86.4165 190.078C82.1913 188.899 76.451 186.53 72.0395 187.65C68.6046 188.523 66.8374 183.283 70.2883 182.407Z" fill="#ACB23D"/>
<path d="M77.4728 232.481C75.7109 229.011 72.6143 225.743 68.5234 225.68C64.6312 225.621 60.5595 226.561 56.7721 227.344C53.3227 228.057 51.5421 222.819 55.0209 222.1C60.1173 221.047 66.043 219.403 71.2634 220.395C75.9252 221.28 80.0039 225.326 82.1019 229.457C83.6964 232.6 79.0847 235.655 77.4728 232.481Z" fill="#ACB23D"/>
<path d="M164.202 97.8732C156.095 96.4193 147.95 95.9515 139.73 96.4458C136.174 96.6597 135.832 91.1411 139.385 90.9271C148.084 90.4037 156.759 90.9243 165.336 92.4626C168.84 93.0914 167.703 98.5013 164.202 97.8732Z" fill="#ACB23D"/>
<path d="M193.322 47.9622C179.128 54.6468 179.977 72.1698 187.617 83.4573C189.615 86.4085 184.985 89.4292 182.99 86.481C173.114 71.8918 174.151 50.9221 191.571 42.7181C194.79 41.2017 196.505 46.463 193.322 47.9622Z" fill="#ACB23D"/>
<path d="M221.366 45.8772C220.083 54.6233 218.673 63.741 214.112 71.4772C209.766 78.8477 202.851 83.7838 195.474 87.8171C192.368 89.515 189.323 84.8993 192.45 83.1893C199.341 79.4222 205.956 74.9483 209.799 67.8803C213.65 60.7955 214.801 52.6143 215.955 44.7429C216.472 41.221 221.88 42.3676 221.366 45.8772Z" fill="#ACB23D"/>
<path d="M115.967 240.937C114.61 238.078 111.459 235.902 109.053 233.965C106.281 231.734 103.362 229.853 99.8647 229.018C93.8259 227.577 85.4444 227.911 80.1453 231.412C77.1728 233.376 74.1491 228.748 77.1215 226.784C83.9364 222.281 94.5205 221.663 102.23 223.932C106.398 225.159 109.925 227.53 113.251 230.269C116.424 232.881 119.425 235.422 121.211 239.185C122.736 242.399 117.474 244.113 115.967 240.937Z" fill="#ACB23D"/>
<path d="M73.8067 223.19L74.3634 319.326C74.3634 319.326 105.894 290.164 104.729 259.796C103.564 229.429 73.8067 223.19 73.8067 223.19ZM120.204 208.441L122.976 210.197L203.376 260.984L211.641 266.207C211.641 266.207 210.928 264.226 209.624 260.851C202.973 243.548 180.9 189.505 160.605 177.371C140.926 165.613 126.593 193.371 121.877 204.276C120.776 206.82 120.204 208.441 120.204 208.441ZM170.318 162.465L170.546 162.635L173.225 164.675L232.045 209.294C232.045 209.294 231.932 203.5 230.63 195.564C230.068 192.048 229.267 188.105 228.127 184.063C225.391 174.217 220.731 163.752 212.83 157.256C199.877 146.615 184.179 153.462 175.958 158.507C172.46 160.646 170.318 162.465 170.318 162.465Z" fill="#687A1B"/>
<path d="M48.2108 255.48C48.2108 255.48 32.4013 245.576 20.7371 256.31C9.0737 267.044 -1.54582e-05 310.327 -1.54582e-05 310.327L48.2108 255.48Z" fill="#C6C644"/>
<path d="M24.6048 228.879L29.566 225.24L80.4897 187.944L82.7708 186.267L83.5498 185.696C83.5498 185.696 81.9072 184.147 78.9544 182.426C73.2584 179.105 62.7151 175.153 49.8072 180.505C36.4437 186.054 29.5847 206.558 26.5787 219.013C25.1738 224.819 24.6048 228.879 24.6048 228.879Z" fill="#687A1B"/>
<path d="M162.432 96.7996C162.432 96.7996 163.028 71.5074 184.713 71.347C206.397 71.1867 237.858 127.674 237.858 127.674L162.432 96.7996ZM131.702 117.657C131.702 117.657 150.914 111.329 149.808 94.153C148.702 76.9767 122.725 52.7041 122.725 52.7041L131.702 117.657Z" fill="#C6C644"/>
<path d="M185.453 49.8514C185.453 49.8514 182.252 24.7049 202.469 27.0602C222.685 29.4154 253.709 74.5148 253.709 74.5148L185.453 49.8514Z" fill="#9E9E2B"/>
<path d="M62.8573 157.589C62.8573 157.589 63.3771 157.669 64.3357 157.814C69.5705 158.572 87.9397 160.983 106.276 160.091C131.395 158.862 156.461 151.465 147.663 125.221C147.522 124.777 147.37 124.331 147.194 123.87C146.752 122.657 146.231 121.409 145.629 120.106C145.599 120.025 145.553 119.93 145.514 119.846C144.159 116.927 142.695 114.435 141.142 112.368C137.736 107.776 133.903 105.137 129.819 104.008C107.975 97.9689 78.7248 135.112 67.5047 150.825C64.5612 154.943 62.8573 157.589 62.8573 157.589Z" fill="#687A1B"/>
<path d="M35.8417 242.611C77.4426 234.048 48.1878 304.5 48.1878 304.5C48.1878 304.5 -3.69176 250.749 35.8417 242.611Z" fill="#ACB23D"/>
<path d="M24.6048 228.879L29.566 225.241C33.7121 216.913 38.4359 208.885 45.0565 202.271C53.6862 193.659 68.0482 187.03 80.4898 187.944C80.5654 187.941 80.6398 187.947 80.7136 187.953C82.0185 188.057 83.0011 187.368 83.5315 186.454C84.4291 184.91 84.0594 182.724 81.8479 182.542C80.8945 182.465 79.9245 182.421 78.9541 182.425C66.5484 182.328 53.1077 187.842 43.9396 195.785C36.4971 202.236 31.1342 210.394 26.5783 219.012C25.1738 224.819 24.6048 228.879 24.6048 228.879Z" fill="#ACB23D"/>
<path d="M122.791 210.331C122.853 210.284 122.916 210.237 122.976 210.198C131.012 204.242 142.538 205.679 151.73 207.658C162.187 209.91 170.903 215.909 178.241 223.517C188.752 234.43 195.912 247.847 203.377 260.985L211.642 266.208C211.642 266.208 210.928 264.227 209.625 260.852C200.246 244.644 191.689 227.659 177.485 215.143C168.903 207.579 158.997 202.909 147.648 201.344C139.001 200.153 129.541 199.709 121.877 204.277C121.16 204.703 120.456 205.175 119.77 205.697C116.943 207.841 119.956 212.48 122.791 210.331Z" fill="#ACB23D"/>
<path d="M62.8574 157.588C62.8574 157.588 63.3772 157.669 64.3357 157.813C76.8272 152.741 90.2556 149.889 102.802 144.96C114.864 140.231 126.733 134.981 138.496 129.521C141.562 128.102 144.612 126.661 147.663 125.22C147.978 125.069 148.301 124.921 148.614 124.77C149.91 124.157 150.397 122.913 150.291 121.76C150.139 120.1 148.764 118.626 146.862 119.526C146.453 119.723 146.036 119.918 145.629 120.105C130.442 127.305 115.096 134.32 99.4078 140.361C88.9627 144.384 78.0396 147.092 67.5048 150.824C64.5612 154.942 62.8574 157.588 62.8574 157.588Z" fill="#ACB23D"/>
<path d="M167.695 163.346C168.136 164.653 169.43 165.715 171.133 165.225C171.825 165.022 172.522 164.839 173.225 164.676C185.75 161.643 199.041 163.808 209.721 171.234C215.15 175.018 219.496 179.882 222.928 185.516C225.235 189.285 227.313 192.846 230.63 195.565C230.068 192.049 229.266 188.106 228.127 184.064C226.276 181.04 224.564 177.848 222.415 175.345C218.407 170.665 213.553 166.738 208.147 163.788C198.255 158.391 186.928 156.742 175.958 158.509C173.748 158.855 171.544 159.353 169.38 159.982C167.665 160.478 167.254 162.039 167.695 163.346Z" fill="#ACB23D"/>
<path d="M217.274 44.4534C218.263 43.4648 219.277 42.5296 220.332 41.6304C221.33 40.7758 222.357 39.9649 223.403 39.196C233.118 32.0548 244.936 28.2626 256.822 26.1699C270.107 23.8245 284.725 21.6736 298.361 23.3555L306.241 21.5148C306.241 21.5148 297.747 19.3676 286.185 17.2258C275.186 17.3768 264.015 19.1584 253.634 21.1709C241.182 23.5874 229.117 27.8833 219.112 35.5475C218.06 36.344 217.037 37.1838 216.034 38.0649C215.053 38.9232 214.104 39.8164 213.175 40.7419C210.65 43.2713 214.771 46.9601 217.274 44.4534Z" fill="#ACB23D"/>
</g>
</svg>
