<svg width="0" height="0" class="hidden" baseProfile="full">

  <symbol xmlns="http://www.w3.org/2000/svg" viewBox="0 0 24 25" id="icon-close">
    <path fill-rule="evenodd" clip-rule="evenodd" d="M19.7397 4.76035C20.0868 5.10748 20.0868 5.6703 19.7397 6.01743L5.51743 20.2397C5.1703 20.5868 4.60748 20.5868 4.26035 20.2397C3.91322 19.8925 3.91322 19.3297 4.26035 18.9826L18.4826 4.76035C18.8297 4.41322 19.3925 4.41322 19.7397 4.76035Z"></path>
    <path fill-rule="evenodd" clip-rule="evenodd" d="M4.26035 4.76035C4.60748 4.41322 5.1703 4.41322 5.51743 4.76035L19.7397 18.9826C20.0868 19.3297 20.0868 19.8925 19.7397 20.2397C19.3925 20.5868 18.8297 20.5868 18.4826 20.2397L4.26035 6.01743C3.91322 5.6703 3.91322 5.10748 4.26035 4.76035Z"></path>
  </symbol>

  <symbol xmlns="http://www.w3.org/2000/svg" viewBox="0 0 24 24" id="icon-trash">
    <path d="M20.9997 6.73001C20.9797 6.73001 20.9497 6.73001 20.9197 6.73001C15.6297 6.20001 10.3497 6.00001 5.11967 6.53001L3.07967 6.73001C2.65967 6.77001 2.28967 6.47001 2.24967 6.05001C2.20967 5.63001 2.50967 5.27001 2.91967 5.23001L4.95967 5.03001C10.2797 4.49001 15.6697 4.70001 21.0697 5.23001C21.4797 5.27001 21.7797 5.64001 21.7397 6.05001C21.7097 6.44001 21.3797 6.73001 20.9997 6.73001Z"></path>
    <path d="M8.49977 5.72C8.45977 5.72 8.41977 5.72 8.36977 5.71C7.96977 5.64 7.68977 5.25 7.75977 4.85L7.97977 3.54C8.13977 2.58 8.35977 1.25 10.6898 1.25H13.3098C15.6498 1.25 15.8698 2.63 16.0198 3.55L16.2398 4.85C16.3098 5.26 16.0298 5.65 15.6298 5.71C15.2198 5.78 14.8298 5.5 14.7698 5.1L14.5498 3.8C14.4098 2.93 14.3798 2.76 13.3198 2.76H10.6998C9.63977 2.76 9.61977 2.9 9.46977 3.79L9.23977 5.09C9.17977 5.46 8.85977 5.72 8.49977 5.72Z"></path>
    <path d="M15.2104 22.75H8.79039C5.30039 22.75 5.16039 20.82 5.05039 19.26L4.40039 9.19001C4.37039 8.78001 4.69039 8.42001 5.10039 8.39001C5.52039 8.37001 5.87039 8.68001 5.90039 9.09001L6.55039 19.16C6.66039 20.68 6.70039 21.25 8.79039 21.25H15.2104C17.3104 21.25 17.3504 20.68 17.4504 19.16L18.1004 9.09001C18.1304 8.68001 18.4904 8.37001 18.9004 8.39001C19.3104 8.42001 19.6304 8.77001 19.6004 9.19001L18.9504 19.26C18.8404 20.82 18.7004 22.75 15.2104 22.75Z"></path>
    <path d="M13.6601 17.25H10.3301C9.92008 17.25 9.58008 16.91 9.58008 16.5C9.58008 16.09 9.92008 15.75 10.3301 15.75H13.6601C14.0701 15.75 14.4101 16.09 14.4101 16.5C14.4101 16.91 14.0701 17.25 13.6601 17.25Z"></path>
    <path d="M14.5 13.25H9.5C9.09 13.25 8.75 12.91 8.75 12.5C8.75 12.09 9.09 11.75 9.5 11.75H14.5C14.91 11.75 15.25 12.09 15.25 12.5C15.25 12.91 14.91 13.25 14.5 13.25Z"></path>
  </symbol>

  <symbol fill="none" xmlns="http://www.w3.org/2000/svg" viewBox="0 0 18 12" id="icon-check">
    <path fill-rule="evenodd" clip-rule="evenodd" d="M17.5346 0.224019C17.8251 0.519295 17.8213 0.994153 17.526 1.28464L6.85304 11.7846C6.56099 12.072 6.09241 12.0718 5.80061 11.7842L0.473548 6.53418C0.178528 6.24343 0.175069 5.76857 0.465821 5.47355C0.756572 5.17853 1.23143 5.17507 1.52645 5.46582L6.32752 10.1974L16.474 0.215356C16.7693 -0.075135 17.2442 -0.0712564 17.5346 0.224019Z" fill="#292D32"></path>
  </symbol>

  <symbol xmlns="http://www.w3.org/2000/svg" viewBox="0 0 24 24" id="icon-mail">
    <path d="M12 21.25H7C3.35 21.25 1.25 19.15 1.25 15.5V8.5C1.25 4.85 3.35 2.75 7 2.75H17C20.65 2.75 22.75 4.85 22.75 8.5V11.5C22.75 11.91 22.41 12.25 22 12.25C21.59 12.25 21.25 11.91 21.25 11.5V8.5C21.25 5.64 19.86 4.25 17 4.25H7C4.14 4.25 2.75 5.64 2.75 8.5V15.5C2.75 18.36 4.14 19.75 7 19.75H12C12.41 19.75 12.75 20.09 12.75 20.5C12.75 20.91 12.41 21.25 12 21.25Z"></path>
    <path d="M11.9998 12.87C11.1598 12.87 10.3098 12.61 9.65978 12.08L6.52978 9.57996C6.20978 9.31996 6.14978 8.84997 6.40978 8.52997C6.66978 8.20997 7.13977 8.15997 7.45977 8.40997L10.5898 10.91C11.3498 11.52 12.6398 11.52 13.3998 10.91L16.5298 8.40997C16.8498 8.14997 17.3198 8.19997 17.5798 8.52997C17.8398 8.84997 17.7898 9.32996 17.4598 9.57996L14.3298 12.08C13.6898 12.61 12.8398 12.87 11.9998 12.87Z"></path>
    <path d="M15.8201 21.7801C15.4401 21.7801 15.0801 21.6401 14.8201 21.3801C14.5101 21.0701 14.3701 20.6201 14.4401 20.1501L14.6301 18.8001C14.6801 18.4501 14.8901 18.0301 15.1401 17.7801L18.68 14.2401C19.16 13.7601 19.6301 13.5101 20.1401 13.4601C20.7601 13.4001 21.38 13.6601 21.96 14.2401C22.54 14.8201 22.8 15.4301 22.74 16.0601C22.69 16.5601 22.43 17.0401 21.96 17.5201L18.4201 21.0601C18.1701 21.3101 17.75 21.5201 17.4 21.5701L16.05 21.7601C15.97 21.7701 15.9001 21.7801 15.8201 21.7801ZM20.31 14.9501C20.3 14.9501 20.29 14.9501 20.28 14.9501C20.14 14.9601 19.95 15.0901 19.74 15.3001L16.2001 18.8401C16.1701 18.8701 16.12 18.9701 16.12 19.0101L15.9401 20.2601L17.1901 20.0801C17.2301 20.0701 17.33 20.0201 17.36 19.9901L20.9 16.4501C21.11 16.2301 21.24 16.0501 21.2501 15.9101C21.2701 15.7101 21.07 15.4701 20.9 15.3001C20.74 15.1401 20.51 14.9501 20.31 14.9501Z"></path>
    <path d="M20.9201 18.2499C20.8501 18.2499 20.7801 18.2399 20.7201 18.2199C19.4001 17.8499 18.3501 16.7999 17.9801 15.4799C17.8701 15.0799 18.1001 14.6699 18.5001 14.5499C18.9001 14.4399 19.3101 14.6699 19.4201 15.0699C19.6501 15.8899 20.3001 16.5399 21.1201 16.7699C21.5201 16.8799 21.7501 17.2999 21.6401 17.6999C21.5501 18.0299 21.2501 18.2499 20.9201 18.2499Z"></path>
  </symbol>

  <symbol fill="none" xmlns="http://www.w3.org/2000/svg" viewBox="0 0 48 48" id="icon-receipt">
    <path d="M38.84 23.5H32C31.18 23.5 30.5 22.82 30.5 22V8.02C30.5 6.54 31.08 5.16 32.12 4.12C33.16 3.08 34.54 2.5 36.02 2.5H36.04C38.54 2.52 40.9 3.5 42.7 5.28C44.5 7.1 45.48 9.5 45.48 12V16.84C45.5 20.82 42.82 23.5 38.84 23.5ZM33.5 20.5H38.84C41.16 20.5 42.5 19.16 42.5 16.84V12C42.5 10.28 41.82 8.64 40.6 7.4C39.38 6.2 37.74 5.52 36.04 5.5C36.04 5.5 36.04 5.5 36.02 5.5C35.36 5.5 34.72 5.76 34.24 6.24C33.76 6.72 33.5 7.34 33.5 8.02V20.5Z" fill="#197606"></path>
    <path d="M18 46.66C17.06 46.66 16.18 46.3 15.52 45.62L12.2 42.28C12.02 42.1 11.74 42.08 11.54 42.24L8.1 44.8C7.04 45.6 5.64 45.74 4.44 45.14C3.24 44.54 2.5 43.34 2.5 42V12C2.5 5.96 5.96 2.5 12 2.5H36C36.82 2.5 37.5 3.18 37.5 4C37.5 4.82 36.82 5.5 36 5.5C34.62 5.5 33.5 6.62 33.5 8V42C33.5 43.34 32.76 44.54 31.56 45.14C30.36 45.74 28.96 45.62 27.9 44.82L24.48 42.26C24.28 42.1 24 42.14 23.84 42.3L20.48 45.66C19.82 46.3 18.94 46.66 18 46.66ZM11.82 39.14C12.74 39.14 13.64 39.48 14.32 40.18L17.64 43.52C17.76 43.64 17.92 43.66 18 43.66C18.08 43.66 18.24 43.64 18.36 43.52L21.72 40.16C22.96 38.92 24.92 38.8 26.3 39.86L29.7 42.4C29.92 42.56 30.12 42.5 30.22 42.44C30.32 42.38 30.5 42.26 30.5 42V8C30.5 7.1 30.72 6.24 31.1 5.5H12C7.56 5.5 5.5 7.56 5.5 12V42C5.5 42.28 5.68 42.4 5.78 42.46C5.9 42.52 6.1 42.56 6.3 42.4L9.72 39.84C10.34 39.38 11.08 39.14 11.82 39.14Z" fill="#197606"></path>
    <path d="M24 27.52H18C17.18 27.52 16.5 26.84 16.5 26.02C16.5 25.2 17.18 24.52 18 24.52H24C24.82 24.52 25.5 25.2 25.5 26.02C25.5 26.84 24.82 27.52 24 27.52Z" fill="#197606"></path>
    <path d="M24 19.52H18C17.18 19.52 16.5 18.84 16.5 18.02C16.5 17.2 17.18 16.52 18 16.52H24C24.82 16.52 25.5 17.2 25.5 18.02C25.5 18.84 24.82 19.52 24 19.52Z" fill="#197606"></path>
    <path d="M11.9404 20.02C10.8404 20.02 9.94043 19.12 9.94043 18.02C9.94043 16.92 10.8404 16.02 11.9404 16.02C13.0404 16.02 13.9404 16.92 13.9404 18.02C13.9404 19.12 13.0404 20.02 11.9404 20.02Z" fill="#197606"></path>
    <path d="M11.9404 28.02C10.8404 28.02 9.94043 27.12 9.94043 26.02C9.94043 24.92 10.8404 24.02 11.9404 24.02C13.0404 24.02 13.9404 24.92 13.9404 26.02C13.9404 27.12 13.0404 28.02 11.9404 28.02Z" fill="#197606"></path>
  </symbol>

  <symbol fill="none" xmlns="http://www.w3.org/2000/svg" viewBox="0 0 49 48" id="icon-truck">
    <path d="M26.3333 29.5H4.33325C3.51325 29.5 2.83325 28.82 2.83325 28V12C2.83325 6.76 7.09325 2.5 12.3333 2.5H30.3333C31.1532 2.5 31.8333 3.18 31.8333 4V24C31.8333 27.04 29.3733 29.5 26.3333 29.5ZM5.83325 26.5H26.3333C27.7133 26.5 28.8333 25.38 28.8333 24V5.5H12.3333C8.75325 5.5 5.83325 8.42 5.83325 12V26.5Z" fill="#197606"></path>
    <path d="M38.3333 41.5H36.3333C35.5133 41.5 34.8333 40.82 34.8333 40C34.8333 38.62 33.7133 37.5 32.3333 37.5C30.9533 37.5 29.8333 38.62 29.8333 40C29.8333 40.82 29.1533 41.5 28.3333 41.5H20.3333C19.5133 41.5 18.8333 40.82 18.8333 40C18.8333 38.62 17.7133 37.5 16.3333 37.5C14.9533 37.5 13.8333 38.62 13.8333 40C13.8333 40.82 13.1533 41.5 12.3333 41.5H10.3333C6.19325 41.5 2.83325 38.14 2.83325 34V28C2.83325 27.18 3.51325 26.5 4.33325 26.5H26.3333C27.7133 26.5 28.8333 25.38 28.8333 24V10C28.8333 9.18 29.5133 8.5 30.3333 8.5H34.0132C35.9932 8.5 37.8133 9.56003 38.7933 11.28L42.2133 17.26C42.4733 17.72 42.4733 18.3 42.2133 18.76C41.9533 19.22 41.4533 19.5 40.9133 19.5H38.3333C38.0533 19.5 37.8333 19.72 37.8333 20V26C37.8333 26.28 38.0533 26.5 38.3333 26.5H44.3333C45.1533 26.5 45.8333 27.18 45.8333 28V34C45.8333 38.14 42.4733 41.5 38.3333 41.5ZM37.6332 38.5H38.3333C40.8133 38.5 42.8333 36.48 42.8333 34V29.5H38.3333C36.4133 29.5 34.8333 27.92 34.8333 26V20C34.8333 18.08 36.3933 16.5 38.3333 16.5L36.1932 12.76C35.7532 11.98 34.9132 11.5 34.0132 11.5H31.8333V24C31.8333 27.04 29.3733 29.5 26.3333 29.5H5.83325V34C5.83325 36.48 7.85325 38.5 10.3333 38.5H11.0333C11.6933 36.2 13.8133 34.5 16.3333 34.5C18.8533 34.5 20.9732 36.2 21.6332 38.5H27.0532C27.7132 36.2 29.8333 34.5 32.3533 34.5C34.8733 34.5 36.9732 36.2 37.6332 38.5Z" fill="#197606"></path>
    <path d="M16.3333 45.5C13.2933 45.5 10.8333 43.04 10.8333 40C10.8333 36.96 13.2933 34.5 16.3333 34.5C19.3733 34.5 21.8333 36.96 21.8333 40C21.8333 43.04 19.3733 45.5 16.3333 45.5ZM16.3333 37.5C14.9533 37.5 13.8333 38.62 13.8333 40C13.8333 41.38 14.9533 42.5 16.3333 42.5C17.7133 42.5 18.8333 41.38 18.8333 40C18.8333 38.62 17.7133 37.5 16.3333 37.5Z" fill="#197606"></path>
    <path d="M32.3333 45.5C29.2933 45.5 26.8333 43.04 26.8333 40C26.8333 36.96 29.2933 34.5 32.3333 34.5C35.3733 34.5 37.8333 36.96 37.8333 40C37.8333 43.04 35.3733 45.5 32.3333 45.5ZM32.3333 37.5C30.9533 37.5 29.8333 38.62 29.8333 40C29.8333 41.38 30.9533 42.5 32.3333 42.5C33.7133 42.5 34.8333 41.38 34.8333 40C34.8333 38.62 33.7133 37.5 32.3333 37.5Z" fill="#197606"></path>
    <path d="M44.3333 29.5H38.3333C36.4133 29.5 34.8333 27.92 34.8333 26V20C34.8333 18.08 36.4133 16.5 38.3333 16.5H40.9133C41.4533 16.5 41.9533 16.78 42.2133 17.26L45.6332 23.26C45.7532 23.48 45.8333 23.74 45.8333 24V28C45.8333 28.82 45.1533 29.5 44.3333 29.5ZM38.3333 19.5C38.0533 19.5 37.8333 19.72 37.8333 20V26C37.8333 26.28 38.0533 26.5 38.3333 26.5H42.8333V24.4L40.0333 19.5H38.3333Z" fill="#197606"></path>
  </symbol>

  <symbol fill="none" xmlns="http://www.w3.org/2000/svg" viewBox="0 0 49 48" id="icon-book">
    <path d="M24.6663 44.1601C24.0663 44.1601 23.4663 44.02 22.9663 43.74C19.2263 41.7 12.6663 39.54 8.54626 39L7.96631 38.9201C5.34631 38.6001 3.18628 36.14 3.18628 33.48V9.31998C3.18628 7.73998 3.80629 6.30004 4.94629 5.26004C6.08629 4.22004 7.56622 3.72001 9.12622 3.86001C13.5062 4.22001 20.1462 6.42004 23.9062 8.76004L24.3862 9.04007C24.5262 9.10007 24.8263 9.12007 24.9463 9.04007L25.2662 8.83999C26.6062 7.99999 28.2862 7.17997 30.1262 6.43997C30.5862 6.25997 31.1062 6.32 31.5262 6.6C31.9462 6.88 32.1863 7.33999 32.1863 7.83999V13.2L33.8463 12.1C34.3463 11.76 35.0062 11.76 35.5062 12.1L37.1663 13.2V5.56009C37.1663 4.84009 37.6862 4.21999 38.3862 4.07999C38.9662 3.97999 39.5463 3.90001 40.0663 3.86001C40.1063 3.86001 40.2663 3.86001 40.3063 3.86001C41.7663 3.74001 43.2662 4.24006 44.3862 5.28006C45.5262 6.32006 46.1462 7.75999 46.1462 9.33999V33.48C46.1462 36.16 43.9863 38.6001 41.3463 38.9201L40.6863 39C36.5663 39.54 29.9663 41.72 26.3063 43.74C25.8663 44.02 25.2663 44.1601 24.6663 44.1601ZM8.62622 6.81998C7.98622 6.81998 7.40629 7.03999 6.94629 7.45999C6.44629 7.91999 6.16626 8.57998 6.16626 9.31998V33.48C6.16626 34.66 7.18629 35.8 8.32629 35.96L8.92627 36.0401C13.4263 36.6401 20.3263 38.9 24.3263 41.1C24.5063 41.18 24.7662 41.2001 24.8662 41.1601C28.8862 38.9401 35.8063 36.6601 40.3263 36.0601L41.0062 35.98C42.1462 35.84 43.1663 34.68 43.1663 33.5V9.36001C43.1663 8.62001 42.8862 7.98003 42.3862 7.50003C41.8862 7.04003 41.1863 6.82001 40.4663 6.86001C40.4063 6.86001 40.2263 6.86001 40.1863 6.86001V16C40.1863 16.56 39.8862 17.06 39.3862 17.32C38.8862 17.58 38.3063 17.56 37.8463 17.24L34.6863 15.14L31.5262 17.24C31.0662 17.54 30.4862 17.58 29.9862 17.32C29.5062 17.06 29.1863 16.56 29.1863 16V10.14C28.3263 10.56 27.5462 10.98 26.8662 11.38L26.5463 11.58C25.4463 12.26 23.8863 12.26 22.8263 11.6L22.3463 11.3001C18.9663 9.18008 12.8062 7.13998 8.88623 6.81998C8.78623 6.81998 8.70622 6.81998 8.62622 6.81998Z" fill="#197606"></path>
    <path d="M24.6667 42.48C23.8467 42.48 23.1667 41.8 23.1667 40.98V10.98C23.1667 10.16 23.8467 9.47998 24.6667 9.47998C25.4867 9.47998 26.1667 10.16 26.1667 10.98V40.98C26.1667 41.82 25.4867 42.48 24.6667 42.48Z" fill="#197606"></path>
    <path d="M38.6667 17.5C38.3667 17.5 38.0868 17.42 37.8268 17.24L34.6667 15.14L31.5067 17.24C31.0467 17.54 30.4668 17.5799 29.9668 17.3199C29.4868 17.0599 29.1667 16.56 29.1667 16V7.83994C29.1667 7.21994 29.5467 6.67992 30.1067 6.43992C32.8667 5.33992 35.8868 4.47993 38.4268 4.07993C38.8668 3.99993 39.3067 4.14002 39.6467 4.42002C39.9867 4.70002 40.1667 5.12004 40.1667 5.56004V16C40.1667 16.56 39.8667 17.0599 39.3667 17.3199C39.1467 17.4399 38.9067 17.5 38.6667 17.5ZM34.6667 11.8399C34.9467 11.8399 35.2467 11.92 35.5067 12.1L37.1667 13.1999V7.37998C35.5667 7.73998 33.8267 8.25998 32.1667 8.87998V13.1999L33.8268 12.1C34.0868 11.92 34.3867 11.8399 34.6667 11.8399Z" fill="#197606"></path>
  </symbol>

  <symbol fill="none" xmlns="http://www.w3.org/2000/svg" viewBox="0 0 24 24" id="icon-download">
    <path d="M20.625 6.75H15.75V1.875C15.75 1.77554 15.7105 1.68016 15.6402 1.60984C15.5698 1.53951 15.4745 1.5 15.375 1.5H4.875C4.77554 1.5 4.68016 1.53951 4.60984 1.60984C4.53951 1.68016 4.5 1.77554 4.5 1.875V12.375C4.5 12.4745 4.53951 12.5698 4.60984 12.6402C4.68016 12.7105 4.77554 12.75 4.875 12.75H15V18.75H4.875C4.77554 18.75 4.68016 18.7895 4.60984 18.8598C4.53951 18.9302 4.5 19.0255 4.5 19.125V22.125C4.5 22.2245 4.53951 22.3198 4.60984 22.3902C4.68016 22.4605 4.77554 22.5 4.875 22.5H20.625C20.7245 22.5 20.8198 22.4605 20.8902 22.3902C20.9605 22.3198 21 22.2245 21 22.125V7.125C21 7.02554 20.9605 6.93016 20.8902 6.85983C20.8198 6.78951 20.7245 6.75 20.625 6.75Z" fill="#EEEEEE"></path>
    <path d="M15.375 12H3.375C3.16789 12 3 12.1679 3 12.375V19.125C3 19.3321 3.16789 19.5 3.375 19.5H15.375C15.5821 19.5 15.75 19.3321 15.75 19.125V12.375C15.75 12.1679 15.5821 12 15.375 12Z" fill="#66BB6A"></path>
    <path d="M20.8913 6.85898L15.6413 1.60898C15.5888 1.55609 15.5218 1.52002 15.4488 1.50537C15.3757 1.49072 15.3 1.49815 15.2312 1.52671C15.1624 1.55528 15.1037 1.60368 15.0625 1.66575C15.0213 1.72782 14.9996 1.80074 15 1.87523V7.12523C15 7.22468 15.0395 7.32007 15.1098 7.39039C15.1802 7.46072 15.2756 7.50023 15.375 7.50023H20.625C20.6995 7.50066 20.7724 7.4789 20.8345 7.43773C20.8966 7.39655 20.945 7.33782 20.9735 7.26903C21.0021 7.20024 21.0095 7.1245 20.9949 7.05147C20.9802 6.97844 20.9441 6.91143 20.8913 6.85898Z" fill="#E0E0E0"></path>
    <path d="M5.73438 17.2503L6.75063 15.6715L5.80562 14.2503H6.53313L7.09563 15.1465L7.63938 14.2503H8.34438L7.45188 15.6528L8.49813 17.2503H7.74813L7.08813 16.1478L6.43563 17.2503H5.73438ZM8.86938 17.2503V14.2503H9.50313V16.6803H10.5006V17.2503H8.86938ZM10.7444 16.3578H11.3706C11.3968 16.4819 11.468 16.5919 11.5705 16.6667C11.6729 16.7415 11.7994 16.7757 11.9256 16.7628C12.043 16.7688 12.159 16.7358 12.2556 16.669C12.2951 16.6404 12.3271 16.6025 12.3486 16.5588C12.3702 16.515 12.3807 16.4666 12.3794 16.4178C12.3829 16.353 12.3645 16.2888 12.327 16.2357C12.2896 16.1827 12.2354 16.1438 12.1731 16.1253C12.1456 16.1253 12.0206 16.0878 11.7981 16.0128C11.5628 15.9623 11.3373 15.8736 11.1306 15.7503C11.0309 15.6776 10.9506 15.5813 10.8969 15.4701C10.8433 15.3589 10.8179 15.2362 10.8231 15.1128C10.818 14.9877 10.8406 14.863 10.8892 14.7476C10.9378 14.6323 11.0113 14.529 11.1044 14.4453C11.313 14.2687 11.5814 14.1788 11.8544 14.194C12.1236 14.1838 12.3882 14.2658 12.6044 14.4265C12.6989 14.4956 12.776 14.5859 12.8293 14.69C12.8827 14.7942 12.911 14.9095 12.9119 15.0265H12.2819C12.2619 14.9329 12.2069 14.8505 12.1281 14.7961C12.0494 14.7417 11.9527 14.7195 11.8581 14.734C11.7554 14.7291 11.654 14.7581 11.5694 14.8165C11.5348 14.8419 11.5068 14.8753 11.4879 14.9138C11.4689 14.9524 11.4596 14.9949 11.4606 15.0378C11.4579 15.0855 11.4692 15.133 11.4932 15.1743C11.5172 15.2157 11.5528 15.2491 11.5956 15.2703C11.7461 15.3332 11.9034 15.3785 12.0644 15.4053C12.2726 15.4402 12.4732 15.5112 12.6569 15.6153C12.7764 15.6917 12.8738 15.7979 12.9396 15.9236C13.0054 16.0492 13.0372 16.1898 13.0319 16.3315C13.0381 16.4897 13.0021 16.6467 12.9277 16.7864C12.8532 16.9261 12.7429 17.0435 12.6081 17.1265C12.3958 17.2502 12.1523 17.3101 11.9069 17.299C11.7208 17.3155 11.5336 17.2854 11.362 17.2115C11.1905 17.1375 11.0401 17.0219 10.9244 16.8753C10.8212 16.721 10.7592 16.5428 10.7444 16.3578Z" fill="white"></path>
  </symbol>

  <symbol fill="none" xmlns="http://www.w3.org/2000/svg" viewBox="0 0 20 14" id="icon-next">
    <path d="M12.43 13.8201C12.24 13.8201 12.05 13.7501 11.9 13.6001C11.61 13.3101 11.61 12.8301 11.9 12.5401L17.44 7.00012L11.9 1.46012C11.61 1.17012 11.61 0.690117 11.9 0.400117C12.19 0.110117 12.67 0.110117 12.96 0.400117L19.03 6.47012C19.32 6.76012 19.32 7.24012 19.03 7.53012L12.96 13.6001C12.81 13.7501 12.62 13.8201 12.43 13.8201Z" fill="white"></path>
    <path d="M18.33 7.75H1.5C1.09 7.75 0.75 7.41 0.75 7C0.75 6.59 1.09 6.25 1.5 6.25H18.33C18.74 6.25 19.08 6.59 19.08 7C19.08 7.41 18.74 7.75 18.33 7.75Z" fill="white"></path>
  </symbol>

  <symbol xmlns="http://www.w3.org/2000/svg" viewBox="0 0 12 8" id="icon-dropdown">
    <path d="M11.616 1.707 5.91 7.414.202 1.707 1.616.293 5.91 4.586 10.202.293l1.414 1.414z"></path>
  </symbol>

  <symbol xmlns="http://www.w3.org/2000/svg" viewBox="0 0 24 24" id="icon-map">
    <path d="M20.38 21.13a.75.75 0 0 1-.53-.22l-6.38-6.38a.754.754 0 0 1 0-1.06l7.73-7.73c.19-.19.48-.26.74-.19.26.08.46.29.52.55.19.85.29 1.8.29 2.9v6c0 2.77-.58 4.64-1.84 5.91-.14.14-.35.17-.53.22zM15.06 14l5.26 5.26c.63-.97.93-2.35.93-4.26V9c0-.41-.01-.79-.04-1.15L15.06 14z"></path>
    <path d="M6.27 22.48c-.06 0-.11-.01-.17-.02-3.31-.76-4.85-3.13-4.85-7.46V9c0-5.43 2.32-7.75 7.75-7.75h6c4.33 0 6.7 1.54 7.46 4.85.06.25-.02.52-.2.7L6.8 22.26a.75.75 0 0 1-.53.22zM9 2.75C4.39 2.75 2.75 4.39 2.75 9v6c0 3.47.96 5.21 3.29 5.9L20.89 6.05c-.68-2.33-2.43-3.29-5.9-3.29H9v-.01z"></path>
    <path d="M15 22.75H9c-1.1 0-2.04-.09-2.9-.29a.728.728 0 0 1-.55-.52c-.08-.26 0-.54.19-.74l7.73-7.73c.29-.29.77-.29 1.06 0l6.38 6.38a.75.75 0 0 1 0 1.06c-1.27 1.26-3.14 1.84-5.91 1.84zm-7.15-1.54c.36.03.74.04 1.15.04h6c1.92 0 3.29-.3 4.26-.93L14 15.06l-6.15 6.15zM9.12 13.31c-.63 0-1.26-.23-1.76-.7-1.59-1.51-2.23-3.17-1.85-4.79.38-1.66 1.83-2.78 3.61-2.78 1.78 0 3.23 1.12 3.61 2.78.37 1.63-.27 3.28-1.86 4.79-.49.46-1.12.7-1.75.7zM6.97 8.15c-.32 1.36.6 2.58 1.43 3.37.41.39 1.04.39 1.44 0 .82-.78 1.74-2 1.43-3.37C11 6.96 9.94 6.53 9.12 6.53c-.82 0-1.87.43-2.15 1.62z"></path>
    <path d="M9.15 9.49c-.55 0-1-.45-1-1s.44-1 1-1h.01c.55 0 1 .45 1 1s-.46 1-1.01 1z"></path>
  </symbol>

  <symbol xmlns="http://www.w3.org/2000/svg" viewBox="0 0 24 24" id="icon-clock">
    <path d="M12 22.75C6.07 22.75 1.25 17.93 1.25 12S6.07 1.25 12 1.25 22.75 6.07 22.75 12 17.93 22.75 12 22.75zm0-20C6.9 2.75 2.75 6.9 2.75 12S6.9 21.25 12 21.25s9.25-4.15 9.25-9.25S17.1 2.75 12 2.75z"></path>
    <path d="M15.71 15.93a.67.67 0 0 1-.38-.11l-3.1-1.85c-.77-.46-1.34-1.47-1.34-2.36v-4.1c0-.41.34-.75.75-.75s.75.34.75.75v4.1c0 .36.3.89.61 1.07l3.1 1.85c.36.21.47.67.26 1.03a.77.77 0 0 1-.65.37z"></path>
  </symbol>

  <symbol xmlns="http://www.w3.org/2000/svg" viewBox="0 0 24 25" id="icon-call">
    <path d="M17.45 23.25c-1.13 0-2.32-.27-3.55-.79-1.2-.51-2.41-1.21-3.59-2.06-1.17-.86-2.3-1.82-3.37-2.87-1.06-1.07-2.02-2.2-2.87-3.36-.86-1.2-1.55-2.4-2.04-3.56-.52-1.24-.78-2.44-.78-3.57 0-.78.14-1.52.41-2.21.28-.71.73-1.37 1.34-1.94.77-.76 1.65-1.14 2.59-1.14.39 0 .79.09 1.13.25.39.18.72.45.96.81L10 6.08c.21.29.37.57.48.85.13.3.2.6.2.89 0 .38-.11.75-.32 1.1a4 4 0 0 1-.67.85l-.68.71c.01.03.02.05.03.07.12.21.36.57.82 1.11.49.56.95 1.07 1.41 1.54.59.58 1.08 1.04 1.54 1.42.57.48.94.72 1.16.83l-.02.05.73-.72c.31-.31.61-.54.9-.69.55-.34 1.25-.4 1.95-.11.26.11.54.26.84.47l3.32 2.36c.37.25.64.57.8.95.15.38.22.73.22 1.08 0 .48-.11.96-.32 1.41-.21.45-.47.84-.8 1.2-.57.63-1.19 1.08-1.91 1.37-.69.28-1.44.43-2.23.43zm-11.86-20c-.55 0-1.06.24-1.55.72-.46.43-.78.9-.98 1.41-.21.52-.31 1.07-.31 1.66 0 .93.22 1.94.66 2.98.45 1.06 1.08 2.16 1.88 3.26.8 1.1 1.71 2.17 2.71 3.18 1 .99 2.08 1.91 3.19 2.72 1.08.79 2.19 1.43 3.29 1.89 1.71.73 3.31.9 4.63.35.51-.21.96-.53 1.37-.99.23-.25.41-.52.56-.84.12-.25.18-.51.18-.77 0-.16-.03-.32-.11-.5a.757.757 0 0 0-.28-.3l-3.32-2.36c-.2-.14-.38-.24-.55-.31-.22-.09-.31-.18-.65.03-.2.1-.38.25-.58.45l-.76.75c-.39.38-.99.47-1.45.3l-.27-.12c-.41-.22-.89-.56-1.42-1.01-.48-.41-1-.89-1.63-1.51-.49-.5-.98-1.03-1.49-1.62-.47-.55-.81-1.02-1.02-1.41l-.12-.3c-.06-.23-.08-.36-.08-.5 0-.36.13-.68.38-.93l.75-.78c.2-.2.35-.39.45-.56.08-.13.11-.24.11-.34 0-.08-.03-.2-.08-.32-.07-.16-.18-.34-.32-.53L6.46 3.67a.922.922 0 0 0-.37-.31c-.16-.07-.33-.11-.5-.11zm8.36 12.26-.16.68.27-.7c-.05-.01-.09 0-.11.02z"></path>
  </symbol>

  <symbol xmlns="http://www.w3.org/2000/svg" viewBox="0 0 24 24" id="icon-shopping-cart">
    <path d="M18.19 17.75H7.54c-.99 0-1.94-.42-2.61-1.15A3.573 3.573 0 0 1 4 13.9l.83-9.96c.03-.31-.08-.61-.29-.84-.21-.23-.5-.35-.81-.35H2c-.41 0-.75-.34-.75-.75s.34-.75.75-.75h1.74c.73 0 1.42.31 1.91.84.27.3.47.65.58 1.04h12.49c1.01 0 1.94.4 2.62 1.12.67.73 1.01 1.68.93 2.69l-.54 7.5c-.11 1.83-1.71 3.31-3.54 3.31zM6.28 4.62l-.78 9.4c-.05.58.14 1.13.53 1.56.39.43.93.66 1.51.66h10.65c1.04 0 1.98-.88 2.06-1.92l.54-7.5a2.04 2.04 0 0 0-2.06-2.21H6.28v.01zM16.25 22.75c-1.1 0-2-.9-2-2s.9-2 2-2 2 .9 2 2-.9 2-2 2zm0-2.5c-.28 0-.5.22-.5.5s.22.5.5.5.5-.22.5-.5-.22-.5-.5-.5zM8.25 22.75c-1.1 0-2-.9-2-2s.9-2 2-2 2 .9 2 2-.9 2-2 2zm0-2.5c-.28 0-.5.22-.5.5s.22.5.5.5.5-.22.5-.5-.22-.5-.5-.5z"></path>
    <path d="M21 8.75H9c-.41 0-.75-.34-.75-.75s.34-.75.75-.75h12c.41 0 .75.34.75.75s-.34.75-.75.75z"></path>
  </symbol>

  <symbol xmlns="http://www.w3.org/2000/svg" viewBox="0 0 18 18" id="icon-wa">
    <path d="M12.833 10.667c-.166-.084-1.25-.584-1.416-.667-.167-.083-.334-.083-.5.083-.167.167-.5.667-.667.834-.083.166-.25.166-.417.083a6.812 6.812 0 0 1-1.666-1A9.593 9.593 0 0 1 7 8.583c-.083-.166 0-.333.083-.416.084-.084.167-.25.334-.334.083-.083.166-.25.166-.333a.253.253 0 0 0 0-.333c-.083-.084-.5-1.084-.666-1.5-.084-.584-.25-.584-.417-.584h-.417c-.166 0-.416.167-.5.25-.5.5-.75 1.084-.75 1.75.084.75.334 1.5.834 2.167.916 1.333 2.083 2.417 3.5 3.083.416.167.75.334 1.166.417.417.167.834.167 1.334.083.583-.083 1.083-.5 1.416-1 .167-.333.167-.666.084-1l-.334-.166zm2.084-7.584a8.299 8.299 0 0 0-11.75 0C.5 5.75 0 9.833 1.833 13.083l-1.166 4.25 4.416-1.166c1.25.666 2.584 1 3.917 1a8.216 8.216 0 0 0 8.25-8.25c.083-2.167-.833-4.25-2.333-5.834zm-2.25 11.667c-1.084.667-2.334 1.083-3.667 1.083-1.25 0-2.417-.333-3.5-.916l-.25-.167-2.583.667.666-2.5-.166-.25c-2-3.334-1-7.5 2.25-9.584 3.25-2.083 7.416-1 9.416 2.167 2 3.25 1.084 7.5-2.166 9.5z"></path>
  </symbol>
  
  <symbol xmlns="http://www.w3.org/2000/svg" viewBox="0 0 20 20" id="icon-tg">
    <g clip-path="url(#a)">
      <path d="M10 20C4.5 20 0 15.5 0 10S4.5 0 10 0s10 4.5 10 10-4.5 10-10 10zm0-19c-4.95 0-9 4.05-9 9s4.05 9 9 9 9-4.05 9-9-4.05-9-9-9z"></path>
      <path fill-rule="evenodd" clip-rule="evenodd" d="M8.35 12.05 13 7.85c.2-.2-.05-.25-.3-.1L7 11.35l-2.45-.75c-.55-.15-.55-.55.1-.8l9.65-3.7c.45-.2.85.1.7.8l-1.65 7.75c-.1.55-.45.7-.9.45l-2.5-1.85-1.2 1.15c-.15.15-.35.15-.35 0l-.05-2.35z"></path>
    </g>
    <defs>
      <clipPath id="a">
        <path fill="#fff" d="M0 0h20v20H0z"></path>
      </clipPath>
    </defs>
  </symbol>
</svg>